<svg xmlns="http://www.w3.org/2000/svg" xmlns:xlink="http://www.w3.org/1999/xlink" viewBox="0 0 242.92 110.25"><defs><style>.cls-1{fill:#7f3fff;}.cls-2{fill:#0d6796;}.cls-3{fill:url(#linear-gradient);}.cls-10,.cls-11,.cls-12,.cls-4,.cls-5,.cls-6,.cls-7,.cls-8,.cls-9{fill:none;stroke-miterlimit:10;stroke-width:1.32px;}.cls-4{stroke:url(#linear-gradient-2);}.cls-5{stroke:url(#linear-gradient-3);}.cls-6{stroke:url(#linear-gradient-4);}.cls-7{stroke:url(#linear-gradient-5);}.cls-8{stroke:url(#linear-gradient-6);}.cls-9{stroke:url(#linear-gradient-7);}.cls-10{stroke:url(#linear-gradient-8);}.cls-11{stroke:url(#linear-gradient-9);}.cls-12{stroke:url(#linear-gradient-10);}</style><linearGradient id="linear-gradient" x1="63.6" y1="37.29" x2="204.58" y2="37.29" gradientUnits="userSpaceOnUse"><stop offset="0" stop-color="#2a88af"/><stop offset="0.1" stop-color="#2c8fb5"/><stop offset="0.23" stop-color="#31a2c4"/><stop offset="0.39" stop-color="#3ac0de"/><stop offset="0.49" stop-color="#40d6f0"/><stop offset="1" stop-color="#80e3f5"/></linearGradient><linearGradient id="linear-gradient-2" x1="228.04" y1="9.99" x2="242.92" y2="9.99" gradientUnits="userSpaceOnUse"><stop offset="0" stop-color="#1ad5ea"/><stop offset="0.1" stop-color="#1ed5eb"/><stop offset="0.6" stop-color="#2ed3ee"/><stop offset="1" stop-color="#33d3ef"/></linearGradient><linearGradient id="linear-gradient-3" x1="228.1" y1="35.09" x2="240.46" y2="35.09" xlink:href="#linear-gradient-2"/><linearGradient id="linear-gradient-4" x1="209.63" y1="8.74" x2="216.02" y2="8.74" xlink:href="#linear-gradient-2"/><linearGradient id="linear-gradient-5" x1="206.07" y1="44.67" x2="212.39" y2="44.67" xlink:href="#linear-gradient-2"/><linearGradient id="linear-gradient-6" x1="220.87" y1="50.02" x2="226.97" y2="50.02" xlink:href="#linear-gradient-2"/><linearGradient id="linear-gradient-7" x1="214.45" y1="36.83" x2="221.44" y2="36.83" xlink:href="#linear-gradient-2"/><linearGradient id="linear-gradient-8" x1="221.23" y1="25.79" x2="228.27" y2="25.79" xlink:href="#linear-gradient-2"/><linearGradient id="linear-gradient-9" x1="213.42" y1="19.32" x2="218.95" y2="19.32" xlink:href="#linear-gradient-2"/><linearGradient id="linear-gradient-10" x1="205.83" y1="27.27" x2="210.27" y2="27.27" xlink:href="#linear-gradient-2"/></defs><g id="Layer_2" data-name="Layer 2"><g id="Layer_1-2" data-name="Layer 1"><polygon class="cls-1" points="3.53 12.24 10.6 12.24 14.13 6.12 10.6 0 3.53 0 0 6.12 3.53 12.24"/><path class="cls-2" d="M1.43,54.17v-37H12.71v37Z"/><path class="cls-2" d="M56.13,54.17H44.85V33.37q0-3.66-1.38-5.32a4.47,4.47,0,0,0-3.63-1.65,6.2,6.2,0,0,0-2.39.49,10.15,10.15,0,0,0-2.33,1.37,10.73,10.73,0,0,0-2,2.08A9.86,9.86,0,0,0,31.74,33V54.17H20.46v-37H30.61v6.2a13.52,13.52,0,0,1,5.78-5.11A19.73,19.73,0,0,1,45,16.46a11.2,11.2,0,0,1,5.78,1.3,9.36,9.36,0,0,1,3.38,3.38,13.18,13.18,0,0,1,1.59,4.55,30.71,30.71,0,0,1,.39,4.79Z"/><path class="cls-3" d="M87.07,26.82a21.61,21.61,0,0,0-7.4,1.34A9,9,0,0,0,74.88,32V54.17H63.6v-37H74v7.47a15.71,15.71,0,0,1,4.9-5.85,11.23,11.23,0,0,1,6.38-2.18h1.13a3.33,3.33,0,0,1,.7.07ZM103,54.87q-5.7,0-8.63-3.56T91.44,40.85V17.16h11.28V38.38a8.6,8.6,0,0,0,1.34,5.18,4.46,4.46,0,0,0,3.81,1.8,8.75,8.75,0,0,0,4.37-1.2A10.25,10.25,0,0,0,116,40V17.16h11.28V41.48a3.92,3.92,0,0,0,.53,2.36,2.58,2.58,0,0,0,1.87.81v9.52a24.87,24.87,0,0,1-2.75.46c-.75.07-1.44.1-2.05.1q-6.06,0-6.9-4.72l-.22-2.26a15.37,15.37,0,0,1-6.3,5.4A20.07,20.07,0,0,1,103,54.87Zm56.39,0a14.54,14.54,0,0,1-7.33-1.76,12.1,12.1,0,0,1-4.79-4.93v21H136v-52h9.8v6a14.84,14.84,0,0,1,5.11-4.93,14.35,14.35,0,0,1,7.3-1.76,15.84,15.84,0,0,1,6.87,1.48,16.66,16.66,0,0,1,5.43,4,19.27,19.27,0,0,1,3.59,6.06,21.29,21.29,0,0,1,1.31,7.51,23.69,23.69,0,0,1-1.2,7.68,19.24,19.24,0,0,1-3.32,6.1,15.3,15.3,0,0,1-5.07,4A14.12,14.12,0,0,1,159.39,54.87Zm-3.8-9.51a7,7,0,0,0,3.35-.81,9,9,0,0,0,2.64-2.15,9.57,9.57,0,0,0,1.73-3.14,12.14,12.14,0,0,0,.6-3.77,10.48,10.48,0,0,0-.67-3.77,9.5,9.5,0,0,0-1.84-3,8,8,0,0,0-2.82-2A9,9,0,0,0,155,26a8.14,8.14,0,0,0-4.47,1.38,8.84,8.84,0,0,0-3.28,3.7v7.61a11.56,11.56,0,0,0,3.42,4.72A7.55,7.55,0,0,0,155.59,45.36Zm49,6.83A46.07,46.07,0,0,1,199.26,54a22.27,22.27,0,0,1-6,.84,14.23,14.23,0,0,1-4-.53A8.75,8.75,0,0,1,186,52.65a7.82,7.82,0,0,1-2.22-3.06,11.7,11.7,0,0,1-.81-4.59V25.69h-4.72V17.16h4.72V5.39h11.28V17.16h7.54v8.53h-7.54V41.13a3,3,0,0,0,3.24,3.45,8.72,8.72,0,0,0,2.61-.42,15.35,15.35,0,0,0,2.32-.92Z"/><polygon class="cls-4" points="238.82 4.21 232.14 4.21 228.8 9.99 232.14 15.78 238.82 15.78 242.16 9.99 238.82 4.21"/><polygon class="cls-5" points="235.75 29.66 230.3 31.1 228.83 36.54 232.81 40.53 238.25 39.08 239.72 33.65 235.75 29.66"/><polygon class="cls-6" points="213.27 6.13 210.79 7.05 210.34 9.66 212.38 11.35 214.86 10.43 215.31 7.82 213.27 6.13"/><polygon class="cls-7" points="210.43 42.6 208.03 42.6 206.84 44.67 208.03 46.74 210.43 46.74 211.63 44.67 210.43 42.6"/><polygon class="cls-8" points="223.3 47.71 221.61 49.41 222.23 51.72 224.54 52.34 226.24 50.64 225.62 48.33 223.3 47.71"/><polygon class="cls-9" points="218.41 33.89 215.63 34.96 215.16 37.91 217.48 39.78 220.26 38.71 220.72 35.76 218.41 33.89"/><polygon class="cls-10" points="227.03 23.87 224.23 22.85 221.95 24.77 222.48 27.71 225.28 28.72 227.56 26.8 227.03 23.87"/><polygon class="cls-11" points="216.99 17.46 214.98 17.69 214.17 19.55 215.38 21.17 217.39 20.94 218.19 19.09 216.99 17.46"/><polygon class="cls-12" points="209.61 26.36 208.05 25.46 206.49 26.36 206.49 28.17 208.05 29.07 209.61 28.17 209.61 26.36"/><path class="cls-1" d="M19.43,103.44V80.72h9.7a6.86,6.86,0,0,1,3,.65,7.59,7.59,0,0,1,2.35,1.76A8.31,8.31,0,0,1,36,85.61a7.68,7.68,0,0,1,.54,2.82,7.92,7.92,0,0,1-.91,3.71A7.7,7.7,0,0,1,33.11,95a6.63,6.63,0,0,1-3.82,1.1H24.68v7.33Zm5.25-11.91H29a1.88,1.88,0,0,0,1.12-.35,2.42,2.42,0,0,0,.83-1.05,4.24,4.24,0,0,0,.32-1.73,3.63,3.63,0,0,0-.37-1.75,2.43,2.43,0,0,0-.92-1,2.29,2.29,0,0,0-1.17-.32h-4.1Z"/><path class="cls-1" d="M46.6,103.76a10,10,0,0,1-3.82-.69,8.16,8.16,0,0,1-4.58-4.64,9.09,9.09,0,0,1-.59-3.25,9.21,9.21,0,0,1,.59-3.28A8.17,8.17,0,0,1,40,89.16a8.08,8.08,0,0,1,2.83-1.89,10.75,10.75,0,0,1,7.63,0,8.23,8.23,0,0,1,2.82,1.89A8.52,8.52,0,0,1,55,91.9a9,9,0,0,1,.6,3.28,8.89,8.89,0,0,1-.6,3.25,8.52,8.52,0,0,1-1.76,2.74,8.4,8.4,0,0,1-2.82,1.9A9.88,9.88,0,0,1,46.6,103.76Zm-3.74-8.58a4.83,4.83,0,0,0,.49,2.24,3.79,3.79,0,0,0,1.33,1.49,3.55,3.55,0,0,0,1.92.53,3.41,3.41,0,0,0,1.91-.55,3.71,3.71,0,0,0,1.32-1.5,5.37,5.37,0,0,0,0-4.44,3.65,3.65,0,0,0-1.32-1.5,3.79,3.79,0,0,0-3.83,0A3.82,3.82,0,0,0,43.35,93,4.79,4.79,0,0,0,42.86,95.18Z"/><path class="cls-1" d="M57.16,95.15a9.74,9.74,0,0,1,1-4.37,7.89,7.89,0,0,1,2.63-3.07,6.59,6.59,0,0,1,3.84-1.14,6.25,6.25,0,0,1,3.2.85A5.66,5.66,0,0,1,70,89.65V80.08h5.12V97.74a1.69,1.69,0,0,0,.26,1.07,1.18,1.18,0,0,0,.83.37v4.26a12.17,12.17,0,0,1-2.18.25,3.61,3.61,0,0,1-2.12-.57,2.44,2.44,0,0,1-1-1.6l-.1-.87A5.7,5.7,0,0,1,68.33,103a7.14,7.14,0,0,1-3.23.77,7.81,7.81,0,0,1-3.19-.65,7.44,7.44,0,0,1-2.52-1.81,8,8,0,0,1-1.65-2.74A9.77,9.77,0,0,1,57.16,95.15Zm12.83,2V93.75a4.24,4.24,0,0,0-.91-1.46,4.8,4.8,0,0,0-1.34-1,3.37,3.37,0,0,0-1.52-.37,3.33,3.33,0,0,0-1.52.34,3.66,3.66,0,0,0-1.2,1,4.28,4.28,0,0,0-.79,1.38,5,5,0,0,0-.27,1.64,4.32,4.32,0,0,0,.31,1.67,4.17,4.17,0,0,0,.84,1.33,3.93,3.93,0,0,0,1.28.89,4.22,4.22,0,0,0,1.6.31,3.41,3.41,0,0,0,1.06-.17,5.79,5.79,0,0,0,1-.45,3.78,3.78,0,0,0,.84-.72A4.41,4.41,0,0,0,70,97.17Z"/><path class="cls-1" d="M100.55,87.41a2.09,2.09,0,0,0-.67-.5,16,16,0,0,0-1.44-.72,13.49,13.49,0,0,0-1.89-.67,7.57,7.57,0,0,0-2-.29,3.94,3.94,0,0,0-2.08.46,1.56,1.56,0,0,0-.73,1.42,1.46,1.46,0,0,0,.56,1.2,4.92,4.92,0,0,0,1.61.78l2.6.78a18.89,18.89,0,0,1,3.77,1.38,6.33,6.33,0,0,1,2.45,2.08,6,6,0,0,1,.85,3.37,6.79,6.79,0,0,1-.71,3.23,5.83,5.83,0,0,1-1.9,2.13,8.14,8.14,0,0,1-2.74,1.17,13.26,13.26,0,0,1-3.16.37,17.52,17.52,0,0,1-3.41-.34,18.69,18.69,0,0,1-3.35-1,15.12,15.12,0,0,1-2.94-1.52l2.3-4.57a5.07,5.07,0,0,0,.84.59,13.22,13.22,0,0,0,1.74.89,15.68,15.68,0,0,0,2.32.82,9.92,9.92,0,0,0,2.59.35,3.91,3.91,0,0,0,2.1-.44,1.37,1.37,0,0,0,.69-1.22,1.5,1.5,0,0,0-.72-1.33,7.42,7.42,0,0,0-2-.86c-.82-.26-1.76-.54-2.83-.86A16.88,16.88,0,0,1,89,92.71a5.29,5.29,0,0,1-2-1.94,5.63,5.63,0,0,1-.66-2.86,6.91,6.91,0,0,1,1.14-4,7,7,0,0,1,3-2.48,10.35,10.35,0,0,1,4.19-.84,12.57,12.57,0,0,1,3.09.38,19,19,0,0,1,2.79,1c.86.39,1.63.77,2.32,1.15Z"/><path class="cls-1" d="M116.65,103.76a6.51,6.51,0,0,1-3.3-.81,5.81,5.81,0,0,1-2.21-2.19v9.49H106V86.83h4.45v2.74a6.41,6.41,0,0,1,5.63-3,7.34,7.34,0,0,1,3.12.67,7.58,7.58,0,0,1,2.48,1.83,8.26,8.26,0,0,1,1.64,2.71,9.56,9.56,0,0,1,.57,3.34,10.12,10.12,0,0,1-.93,4.41,7.54,7.54,0,0,1-2.57,3.09A6.45,6.45,0,0,1,116.65,103.76Zm-1.73-4.32a3.25,3.25,0,0,0,1.52-.36,3.94,3.94,0,0,0,1.2-1,4.06,4.06,0,0,0,.78-1.38,5.12,5.12,0,0,0,.28-1.66,4.41,4.41,0,0,0-.31-1.65,4.21,4.21,0,0,0-.85-1.32,3.66,3.66,0,0,0-1.28-.88,4,4,0,0,0-1.6-.31,3.84,3.84,0,0,0-1,.15,4,4,0,0,0-1,.44,5.13,5.13,0,0,0-.85.69,4,4,0,0,0-.64.92v3.41a5.62,5.62,0,0,0,.93,1.48,4.59,4.59,0,0,0,1.31,1A3.26,3.26,0,0,0,114.92,99.44Z"/><path class="cls-1" d="M125.45,98.49a4.63,4.63,0,0,1,.93-2.87,6.29,6.29,0,0,1,2.56-1.94,9.31,9.31,0,0,1,3.74-.71,11.41,11.41,0,0,1,2,.18,7.46,7.46,0,0,1,1.72.5v-.74a2.52,2.52,0,0,0-.83-2,3.84,3.84,0,0,0-2.53-.71,7.27,7.27,0,0,0-2.64.48,14.62,14.62,0,0,0-2.6,1.37l-1.54-3.26a13.52,13.52,0,0,1,3.47-1.63,13.33,13.33,0,0,1,3.83-.55,8.8,8.8,0,0,1,5.87,1.78,6.35,6.35,0,0,1,2.09,5.12v4.3a1.72,1.72,0,0,0,.24,1,1.21,1.21,0,0,0,.85.36v4.26c-.42.08-.83.15-1.2.19a9.28,9.28,0,0,1-1,.06,3.63,3.63,0,0,1-2.2-.57,2.53,2.53,0,0,1-.94-1.57l-.1-.74a7.41,7.41,0,0,1-5.92,3,6.4,6.4,0,0,1-3-.69,5.48,5.48,0,0,1-2.09-1.9A4.8,4.8,0,0,1,125.45,98.49Zm10.17.6a2.56,2.56,0,0,0,.58-.61,1.2,1.2,0,0,0,.22-.65V96.38A7.7,7.7,0,0,0,135,96a8.65,8.65,0,0,0-1.46-.14,4.14,4.14,0,0,0-2.33.61,1.82,1.82,0,0,0-.93,1.58,1.79,1.79,0,0,0,.32,1,2.21,2.21,0,0,0,.88.74,2.9,2.9,0,0,0,1.33.28,4.35,4.35,0,0,0,1.53-.28A3.92,3.92,0,0,0,135.62,99.09Z"/><path class="cls-1" d="M153.29,103.76a9.88,9.88,0,0,1-3.81-.69,8.54,8.54,0,0,1-2.83-1.9,8.25,8.25,0,0,1-1.78-2.74,9,9,0,0,1-.61-3.28,8.58,8.58,0,0,1,1.08-4.22,8.19,8.19,0,0,1,3.08-3.16,9.38,9.38,0,0,1,4.87-1.2,9.14,9.14,0,0,1,4.88,1.24,7.87,7.87,0,0,1,3,3.21l-5,1.51a3.34,3.34,0,0,0-1.23-1.19,3.51,3.51,0,0,0-1.68-.41,3.56,3.56,0,0,0-1.91.52A3.86,3.86,0,0,0,150,92.91a5.22,5.22,0,0,0,0,4.48,4,4,0,0,0,1.35,1.5,3.3,3.3,0,0,0,1.89.55,3.44,3.44,0,0,0,1.2-.21,3.72,3.72,0,0,0,1-.59,2.93,2.93,0,0,0,.72-.87l5,1.54a7,7,0,0,1-1.74,2.29,8.47,8.47,0,0,1-2.67,1.58A9.79,9.79,0,0,1,153.29,103.76Z"/><path class="cls-1" d="M171.37,103.76a10.07,10.07,0,0,1-3.81-.68,8.58,8.58,0,0,1-2.83-1.85A8,8,0,0,1,163,98.52a8.72,8.72,0,0,1-.61-3.21A8.88,8.88,0,0,1,163.42,91a8.27,8.27,0,0,1,3.09-3.18,10.38,10.38,0,0,1,9.71,0,8.13,8.13,0,0,1,3.05,3.14,8.57,8.57,0,0,1,1.06,4.2,8.14,8.14,0,0,1-.05.87c0,.28-.06.53-.08.74H167.79a3.63,3.63,0,0,0,.62,1.83,3.35,3.35,0,0,0,1.36,1.14,4.08,4.08,0,0,0,1.76.39,4.39,4.39,0,0,0,2.16-.55,2.91,2.91,0,0,0,1.39-1.47l4.35,1.22a7.27,7.27,0,0,1-1.8,2.32,8.7,8.7,0,0,1-2.76,1.58A10,10,0,0,1,171.37,103.76Zm-3.71-10.18H175a4,4,0,0,0-.61-1.75,3.16,3.16,0,0,0-1.27-1.16,3.76,3.76,0,0,0-1.77-.42,3.67,3.67,0,0,0-1.77.42,3.27,3.27,0,0,0-1.26,1.16A4.1,4.1,0,0,0,167.66,93.58Z"/><path class="cls-1" d="M189.1,103.76a12.76,12.76,0,0,1-4.19-.71,8.93,8.93,0,0,1-3.46-2.08l1.76-3.23a13.7,13.7,0,0,0,3,1.7,7.51,7.51,0,0,0,2.74.57,3.19,3.19,0,0,0,1.53-.3,1,1,0,0,0,.55-.93.94.94,0,0,0-.32-.75,3.18,3.18,0,0,0-1-.48c-.44-.15-1-.31-1.61-.48a28.68,28.68,0,0,1-3.2-1.23A4.7,4.7,0,0,1,183,94.38a3.69,3.69,0,0,1-.64-2.26,5.08,5.08,0,0,1,.84-2.91,5.55,5.55,0,0,1,2.42-1.94,9.21,9.21,0,0,1,3.74-.7,10.78,10.78,0,0,1,3.38.55,8.78,8.78,0,0,1,3.09,1.82l-2,3.2a13.57,13.57,0,0,0-2.56-1.44,5.78,5.78,0,0,0-2.17-.45,3.71,3.71,0,0,0-1,.13,1.44,1.44,0,0,0-.72.42,1.07,1.07,0,0,0-.28.77,1,1,0,0,0,.28.76,2,2,0,0,0,.86.48c.39.14.89.3,1.49.49a26.82,26.82,0,0,1,3.45,1.21A5.2,5.2,0,0,1,195.26,96a3.75,3.75,0,0,1,.69,2.37,4.73,4.73,0,0,1-1.84,3.94A8,8,0,0,1,189.1,103.76Z"/><path class="cls-2" d="M198.29,72.56h2.13l2.92,8.52h-2l-.58-1.91H198l-.58,1.91h-2Zm2.05,5.26-1-3.28-1,3.28Z"/><path class="cls-2" d="M204.18,81.08V72.56h2v6.79h4.13v1.73Z"/><path class="cls-2" d="M211.2,81.08V72.56h3.64a2.59,2.59,0,0,1,1.12.24,2.91,2.91,0,0,1,.88.66,3.14,3.14,0,0,1,.58.94,2.72,2.72,0,0,1,.2,1,3,3,0,0,1-.34,1.39,2.91,2.91,0,0,1-.95,1.08,2.51,2.51,0,0,1-1.43.41h-1.73v2.75Zm2-4.46h1.61a.73.73,0,0,0,.42-.14.88.88,0,0,0,.31-.39,1.57,1.57,0,0,0,.12-.65,1.32,1.32,0,0,0-.14-.66.87.87,0,0,0-.78-.49h-1.54Z"/><path class="cls-2" d="M226,72.56v8.52h-2V77.59h-3.39v3.49h-2V72.56h2v3.3H224v-3.3Z"/><path class="cls-2" d="M229.79,72.56h2.13l2.92,8.52h-2l-.58-1.91h-2.81l-.57,1.91h-2Zm2.05,5.26-1-3.28-1,3.28Z"/></g></g></svg>