<?xml version="1.0" encoding="utf-8"?>
<!-- Generator: Adobe Illustrator 26.0.3, SVG Export Plug-In . SVG Version: 6.00 Build 0)  -->
<svg version="1.1" id="Laag_1" xmlns="http://www.w3.org/2000/svg" xmlns:xlink="http://www.w3.org/1999/xlink" x="0px" y="0px"
	 viewBox="0 0 260.84 323.36" style="enable-background:new 0 0 260.84 323.36;" xml:space="preserve">
<style type="text/css">
	.st0{fill:#FFFFFF;}
	.st1{fill:#3BB9C4;}
	.st2{fill:#FC273F;}
	.st3{fill:#1D1D1B;}
</style>
<g>
	<path class="st0" d="M52.84,284.67c5.15,0,9.88-1.86,12.88-7.52v6.37h7.16v-37.58h-7.16v20.33c0,7.73-4.65,12.24-11.02,12.24
		c-4.08,0-8.02-1.86-8.02-10.31v-22.26h-7.16v22.91C39.52,279.59,44.46,284.67,52.84,284.67"/>
	<path class="st0" d="M96.93,284.67c8.66,0,14.32-3.79,14.32-10.95c0-8.23-5.65-10.31-13.24-12.03c-7.3-1.65-10.59-2.65-10.59-6.37
		c0-3.65,3.87-4.65,8.02-4.65c3.36,0,7.3,1.29,7.8,6.73h7.09c-0.07-7.66-5.8-12.6-14.39-12.6c-8.52,0-15.39,3.36-15.39,10.66
		c0,8.38,7.02,10.17,16.03,12.38c3.72,0.86,7.59,2.15,7.59,6.01c0,3.15-2.72,4.94-6.8,4.94c-6.59,0-10.45-1.79-11.74-7.59h-7.02
		C78.61,279.66,86.55,284.67,96.93,284.67"/>
	<path class="st0" d="M123.06,261.62c0-7.37,4.65-10.67,10.16-10.67c5.51,0,10.02,3.36,10.02,10.67H123.06z M122.98,267.13h27.34
		v-5.73c0-10.09-7.16-16.61-17.04-16.61c-11.1,0-17.61,8.23-17.61,19.83c0,11.38,6.23,20.04,17.9,20.04
		c10.45,0,16.03-6.94,16.75-12.1h-7.09c-0.93,2.65-4.37,5.94-9.66,5.94C127.21,278.51,123.56,274.07,122.98,267.13"/>
	<rect x="172.09" y="245.94" class="st0" width="7.16" height="37.58"/>
	<path class="st0" d="M213.96,266.34c0,7.3-4.37,12.1-11.02,12.1c-6.66,0-11.1-5.51-11.1-13.89c0-8.16,4.37-13.53,10.95-13.53
		c6.73,0,11.17,4.44,11.17,11.24V266.34z M221.12,283.52v-54.4h-7.16v21.9c-2.93-3.79-7.52-6.23-12.17-6.23
		c-10.31,0-17.11,7.95-17.11,19.83c0,12.03,6.73,20.04,16.75,20.04c4.94,0,10.16-2.36,12.74-5.87v4.72H221.12z"/>
	<path class="st0" d="M159.78,284.67c2.17,0,3.92-1.76,3.92-3.92c0-2.17-1.76-3.93-3.92-3.93s-3.92,1.76-3.92,3.93
		C155.85,282.91,157.61,284.67,159.78,284.67"/>
</g>
<path class="st1" d="M99.91,221.99c33.35,0,60.39-27.04,60.39-60.39s-27.04-60.39-60.39-60.39s-60.39,27.04-60.39,60.39
	S66.56,221.99,99.91,221.99"/>
<g>
	<path class="st2" d="M160.93,68.75c2.85,0,5.17-2.31,5.17-5.17c0-2.85-2.31-5.17-5.17-5.17c-2.85,0-5.17,2.31-5.17,5.17
		C155.76,66.44,158.08,68.75,160.93,68.75"/>
	<path class="st2" d="M160.93,50.53c2.85,0,5.17-2.31,5.17-5.17c0-2.85-2.31-5.17-5.17-5.17c-2.85,0-5.17,2.31-5.17,5.17
		C155.76,48.22,158.08,50.53,160.93,50.53"/>
	<path class="st2" d="M166.1,155.8c0-2.85-2.31-5.17-5.17-5.17c-0.55,0-1.09,0.09-1.59,0.25c0.58,3.27,0.91,6.62,0.95,10.05
		c0.21,0.03,0.42,0.04,0.64,0.04C163.79,160.97,166.1,158.65,166.1,155.8"/>
	<path class="st2" d="M110.63,102.17c0.16-0.5,0.25-1.03,0.25-1.59c0-2.85-2.31-5.17-5.17-5.17c-2.85,0-5.17,2.31-5.17,5.17
		c0,0.22,0.02,0.43,0.04,0.64C104.01,101.26,107.37,101.58,110.63,102.17"/>
	<path class="st2" d="M131.51,60.09c2.31-1.68,2.82-4.91,1.14-7.22c-1.68-2.31-4.91-2.82-7.22-1.14c-2.31,1.68-2.82,4.91-1.14,7.22
		C125.97,61.25,129.2,61.77,131.51,60.09"/>
	<path class="st2" d="M196.42,149.43c2.31-1.68,2.82-4.91,1.14-7.22c-1.68-2.31-4.91-2.82-7.22-1.14c-2.31,1.68-2.82,4.91-1.14,7.22
		C190.88,150.6,194.12,151.11,196.42,149.43"/>
	<path class="st2" d="M113.33,85.11c0.88-2.71-0.6-5.63-3.32-6.51c-2.71-0.88-5.63,0.6-6.51,3.32c-0.88,2.71,0.6,5.63,3.32,6.51
		C109.53,89.31,112.45,87.83,113.33,85.11"/>
	<path class="st2" d="M218.36,119.24c0.88-2.71-0.6-5.63-3.32-6.51c-2.71-0.88-5.63,0.6-6.51,3.32c-0.88,2.71,0.6,5.63,3.32,6.51
		C214.56,123.44,217.48,121.96,218.36,119.24"/>
	<path class="st2" d="M218.36,81.92c-0.88-2.71-3.8-4.2-6.51-3.32c-2.71,0.88-4.2,3.8-3.32,6.51c0.88,2.71,3.8,4.2,6.51,3.32
		C217.76,87.55,219.24,84.63,218.36,81.92"/>
	<path class="st2" d="M196.42,51.73c-2.31-1.68-5.54-1.17-7.22,1.14c-1.68,2.31-1.17,5.54,1.14,7.22c2.31,1.68,5.54,1.17,7.22-1.14
		C199.25,56.64,198.73,53.4,196.42,51.73"/>
	<path class="st2" d="M145.46,52.98c2.71-0.88,4.2-3.8,3.32-6.51c-0.88-2.71-3.8-4.2-6.51-3.32c-2.71,0.88-4.2,3.8-3.32,6.51
		C139.83,52.38,142.75,53.86,145.46,52.98"/>
	<path class="st2" d="M179.59,158.01c2.71-0.88,4.2-3.8,3.32-6.51c-0.88-2.71-3.8-4.2-6.51-3.32c-2.71,0.88-4.2,3.8-3.32,6.51
		C173.96,157.41,176.88,158.89,179.59,158.01"/>
	<path class="st2" d="M120.44,71.16c1.68-2.31,1.17-5.54-1.14-7.22c-2.31-1.68-5.54-1.17-7.22,1.14c-1.68,2.31-1.17,5.54,1.14,7.22
		C115.53,73.98,118.76,73.47,120.44,71.16"/>
	<path class="st2" d="M209.78,136.07c1.68-2.31,1.17-5.54-1.14-7.22c-2.31-1.68-5.54-1.17-7.22,1.14c-1.68,2.31-1.17,5.54,1.14,7.22
		C204.87,138.9,208.11,138.38,209.78,136.07"/>
	<path class="st2" d="M221.32,100.58c0-2.85-2.31-5.17-5.17-5.17c-2.85,0-5.17,2.31-5.17,5.17c0,2.85,2.31,5.17,5.17,5.17
		C219,105.75,221.32,103.43,221.32,100.58"/>
	<path class="st2" d="M209.78,65.09c-1.68-2.31-4.91-2.82-7.22-1.14c-2.31,1.68-2.82,4.91-1.14,7.22c1.68,2.31,4.91,2.82,7.22,1.14
		C210.95,70.63,211.46,67.4,209.78,65.09"/>
	<path class="st2" d="M179.59,43.15c-2.71-0.88-5.63,0.6-6.51,3.32c-0.88,2.71,0.6,5.63,3.32,6.51c2.71,0.88,5.63-0.6,6.51-3.32
		C183.79,46.95,182.31,44.03,179.59,43.15"/>
	<path class="st2" d="M133.37,84.67c1.43-2.47,0.58-5.63-1.89-7.06c-2.47-1.43-5.63-0.58-7.06,1.89c-1.43,2.47-0.58,5.63,1.89,7.06
		C128.78,87.99,131.94,87.14,133.37,84.67"/>
	<path class="st2" d="M145.02,73.02c2.47-1.43,3.32-4.59,1.89-7.06c-1.43-2.47-4.59-3.32-7.06-1.89c-2.47,1.43-3.32,4.59-1.89,7.06
		C139.39,73.6,142.55,74.45,145.02,73.02"/>
	<path class="st2" d="M129.11,100.58c0-2.85-2.31-5.17-5.17-5.17c-2.85,0-5.17,2.31-5.17,5.17c0,2.85,2.31,5.17,5.17,5.17
		C126.79,105.75,129.11,103.43,129.11,100.58"/>
	<path class="st2" d="M147.6,100.58c0-2.85-2.31-5.17-5.17-5.17c-2.85,0-5.17,2.31-5.17,5.17c0,2.85,2.31,5.17,5.17,5.17
		C145.29,105.75,147.6,103.43,147.6,100.58"/>
	<path class="st2" d="M156.92,84.56c0-2.85-2.31-5.17-5.17-5.17s-5.17,2.31-5.17,5.17s2.31,5.17,5.17,5.17
		S156.92,87.42,156.92,84.56"/>
	<path class="st2" d="M165.08,84.56c0-2.85,2.31-5.17,5.17-5.17c2.85,0,5.17,2.31,5.17,5.17s-2.31,5.17-5.17,5.17
		C167.39,89.73,165.08,87.42,165.08,84.56"/>
	<path class="st2" d="M175.42,116.6c0-2.85-2.31-5.17-5.17-5.17c-2.85,0-5.17,2.31-5.17,5.17s2.31,5.17,5.17,5.17
		C173.1,121.77,175.42,119.45,175.42,116.6"/>
	<path class="st2" d="M146.58,116.6c0-2.85,2.31-5.17,5.17-5.17c2.85,0,5.17,2.31,5.17,5.17s-2.31,5.17-5.17,5.17
		C148.9,121.77,146.58,119.45,146.58,116.6"/>
	<path class="st2" d="M166.1,100.58c0-2.85-2.31-5.17-5.17-5.17c-2.85,0-5.17,2.31-5.17,5.17c0,2.85,2.31,5.17,5.17,5.17
		C163.79,105.75,166.1,103.43,166.1,100.58"/>
	<path class="st2" d="M184.6,100.58c0-2.85-2.31-5.17-5.17-5.17c-2.85,0-5.17,2.31-5.17,5.17c0,2.85,2.31,5.17,5.17,5.17
		C182.28,105.75,184.6,103.43,184.6,100.58"/>
	<path class="st2" d="M160.93,142.74c2.85,0,5.17-2.31,5.17-5.17c0-2.85-2.31-5.17-5.17-5.17c-2.85,0-5.17,2.31-5.17,5.17
		C155.76,140.43,158.08,142.74,160.93,142.74"/>
	<path class="st2" d="M197.44,121.66c1.43-2.47,0.58-5.63-1.89-7.06c-2.47-1.43-5.63-0.58-7.06,1.89c-1.43,2.47-0.58,5.63,1.89,7.06
		C192.86,124.98,196.02,124.13,197.44,121.66"/>
	<path class="st2" d="M197.44,79.5c-1.43-2.47-4.59-3.32-7.06-1.89c-2.47,1.43-3.32,4.59-1.89,7.06c1.43,2.47,4.59,3.32,7.06,1.89
		C198.02,85.13,198.87,81.97,197.44,79.5"/>
	<path class="st2" d="M182.01,137.09c2.47-1.43,3.32-4.59,1.89-7.06c-1.43-2.47-4.59-3.32-7.06-1.89c-2.47,1.43-3.32,4.59-1.89,7.06
		C176.38,137.67,179.54,138.52,182.01,137.09"/>
	<path class="st2" d="M203.09,100.58c0-2.85-2.31-5.17-5.17-5.17c-2.85,0-5.17,2.31-5.17,5.17c0,2.85,2.31,5.17,5.17,5.17
		C200.78,105.75,203.09,103.43,203.09,100.58"/>
	<path class="st2" d="M182.01,64.07c-2.47-1.43-5.63-0.58-7.06,1.89c-1.43,2.47-0.58,5.63,1.89,7.06c2.47,1.43,5.63,0.58,7.06-1.89
		C185.33,68.66,184.48,65.49,182.01,64.07"/>
</g>
<path class="st3" d="M113.33,116.05c-0.88-2.71-3.8-4.2-6.51-3.32c-2.71,0.88-4.2,3.8-3.32,6.51c0.88,2.71,3.8,4.2,6.51,3.32
	C112.73,121.68,114.21,118.76,113.33,116.05"/>
<g>
	<path class="st3" d="M131.51,141.07c-2.31-1.68-5.54-1.17-7.22,1.14c-1.68,2.31-1.17,5.54,1.14,7.22c2.31,1.68,5.54,1.17,7.22-1.14
		C134.33,145.98,133.82,142.75,131.51,141.07"/>
	<path class="st3" d="M120.44,130c-1.68-2.31-4.91-2.82-7.22-1.14c-2.31,1.68-2.82,4.91-1.14,7.22c1.68,2.31,4.91,2.82,7.22,1.14
		C121.61,135.54,122.12,132.31,120.44,130"/>
	<path class="st3" d="M145.46,148.18c-2.71-0.88-5.63,0.6-6.51,3.32c-0.88,2.71,0.6,5.63,3.32,6.51c2.71,0.88,5.63-0.6,6.51-3.32
		C149.67,151.98,148.18,149.06,145.46,148.18"/>
	<path class="st3" d="M133.37,116.49c-1.43-2.47-4.59-3.32-7.06-1.89c-2.47,1.43-3.32,4.59-1.89,7.06c1.43,2.47,4.59,3.32,7.06,1.89
		C133.95,122.13,134.8,118.96,133.37,116.49"/>
	<path class="st3" d="M145.02,128.14c-2.47-1.43-5.63-0.58-7.06,1.89c-1.43,2.47-0.58,5.63,1.89,7.06c2.47,1.43,5.63,0.58,7.06-1.89
		C148.34,132.73,147.49,129.57,145.02,128.14"/>
	<path class="st3" d="M105.71,105.75c2.3,0,4.25-1.5,4.92-3.58c-3.27-0.59-6.62-0.91-10.05-0.94
		C100.9,103.77,103.08,105.75,105.71,105.75"/>
	<path class="st3" d="M160.29,160.92c-0.04-3.42-0.36-6.78-0.95-10.05c-2.08,0.67-3.58,2.62-3.58,4.92
		C155.76,158.43,157.74,160.61,160.29,160.92"/>
</g>
</svg>
